<?xml version="1.0" encoding="utf-8"?>
<svg version="1.1" xmlns:xlink="http://www.w3.org/1999/xlink" width="223px" height="35px" xmlns="http://www.w3.org/2000/svg">
  <defs>
    <mask fill="white" id="clip13">
      <path d="M 0 32  L 0 3  C 0 1.31999999999999  1.63533333333333 0  3.71666666666667 0  L 219.283333333333 0  C 221.364666666667 0  223 1.31999999999999  223 3  L 223 32  C 223 33.68  221.364666666667 35  219.283333333333 35  L 152.322404371584 35  L 3.71666666666667 35  C 1.63533333333333 35  0 33.68  0 32  Z " fill-rule="evenodd" />
    </mask>
  </defs>
  <g transform="matrix(1 0 0 1 -62 -119 )">
    <path d="M 0 32  L 0 3  C 0 1.31999999999999  1.63533333333333 0  3.71666666666667 0  L 219.283333333333 0  C 221.364666666667 0  223 1.31999999999999  223 3  L 223 32  C 223 33.68  221.364666666667 35  219.283333333333 35  L 152.322404371584 35  L 3.71666666666667 35  C 1.63533333333333 35  0 33.68  0 32  Z " fill-rule="nonzero" fill="#ffffff" stroke="none" transform="matrix(1 0 0 1 62 119 )" />
    <path d="M 0 32  L 0 3  C 0 1.31999999999999  1.63533333333333 0  3.71666666666667 0  L 219.283333333333 0  C 221.364666666667 0  223 1.31999999999999  223 3  L 223 32  C 223 33.68  221.364666666667 35  219.283333333333 35  L 152.322404371584 35  L 3.71666666666667 35  C 1.63533333333333 35  0 33.68  0 32  Z " stroke-width="2" stroke="#d7d7d7" fill="none" transform="matrix(1 0 0 1 62 119 )" mask="url(#clip13)" />
  </g>
</svg>