<?xml version="1.0" encoding="utf-8"?>
<svg version="1.1" xmlns:xlink="http://www.w3.org/1999/xlink" width="18px" height="14px" xmlns="http://www.w3.org/2000/svg">
  <g transform="matrix(1 0 0 1 -10 -12 )">
    <path d="M 17.8091517857143 11.6434659090909  C 17.9363839285714 11.7694128787879  18 11.9185606060606  18 12.0909090909091  L 18 13.3636363636364  C 18 13.5359848484848  17.9363839285714 13.6851325757576  17.8091517857143 13.8110795454545  C 17.6819196428571 13.9370265151515  17.53125 14  17.3571428571429 14  L 0.642857142857143 14  C 0.46875 14  0.318080357142857 13.9370265151515  0.190848214285714 13.8110795454545  C 0.0636160714285714 13.6851325757576  0 13.5359848484848  0 13.3636363636364  L 0 12.0909090909091  C 0 11.9185606060606  0.0636160714285714 11.7694128787879  0.190848214285714 11.6434659090909  C 0.318080357142857 11.5175189393939  0.46875 11.4545454545455  0.642857142857143 11.4545454545455  L 17.3571428571429 11.4545454545455  C 17.53125 11.4545454545455  17.6819196428571 11.5175189393939  17.8091517857143 11.6434659090909  Z M 13.9520089285714 7.82528409090909  C 14.0792410714286 7.95123106060606  14.1428571428571 8.10037878787879  14.1428571428571 8.27272727272727  L 14.1428571428571 9.54545454545455  C 14.1428571428571 9.71780303030303  14.0792410714286 9.86695075757576  13.9520089285714 9.99289772727273  C 13.8247767857143 10.1188446969697  13.6741071428571 10.1818181818182  13.5 10  L 0.642857142857143 10  C 0.46875 10.1818181818182  0.318080357142857 10.1188446969697  0.190848214285714 9.99289772727273  C 0.0636160714285714 9.86695075757576  0 9.71780303030303  0 9.54545454545455  L 0 8.27272727272727  C 0 8.10037878787879  0.0636160714285714 7.95123106060606  0.190848214285714 7.82528409090909  C 0.318080357142857 7.69933712121212  0.46875 7.63636363636364  0.642857142857143 7.63636363636364  L 13.5 7.63636363636364  C 13.6741071428571 7.63636363636364  13.8247767857143 7.69933712121212  13.9520089285714 7.82528409090909  Z M 16.5234375 4.00710227272727  C 16.6506696428571 4.13304924242424  16.7142857142857 4.28219696969697  16.7142857142857 4.45454545454546  L 16.7142857142857 5.72727272727273  C 16.7142857142857 5.89962121212121  16.6506696428571 6.04876893939394  16.5234375 6.17471590909091  C 16.3962053571429 6.30066287878788  16.2455357142857 6.36363636363636  16.0714285714286 6.36363636363636  L 0.642857142857143 6.36363636363636  C 0.46875 6.36363636363636  0.318080357142857 6.30066287878788  0.190848214285714 6.17471590909091  C 0.0636160714285714 6.04876893939394  0 5.89962121212121  0 5.72727272727273  L 0 4.45454545454546  C 0 4.28219696969697  0.0636160714285714 4.13304924242424  0.190848214285714 4.00710227272727  C 0.318080357142857 3.8811553030303  0.46875 3.81818181818182  0.642857142857143 4  L 16.0714285714286 4  C 16.2455357142857 3.81818181818182  16.3962053571429 3.8811553030303  16.5234375 4.00710227272727  Z M 12.6662946428571 0.188920454545455  C 12.7935267857143 0.314867424242422  12.8571428571429 0.464015151515151  12.8571428571429 0.636363636363636  L 12.8571428571429 1.90909090909091  C 12.8571428571429 2.08143939393939  12.7935267857143 2.23058712121212  12.6662946428571 2.35653409090909  C 12.5390625 2.48248106060606  12.3883928571429 2.54545454545455  12.2142857142857 2.54545454545455  L 0.642857142857143 2.54545454545455  C 0.46875 2.54545454545455  0.318080357142857 2.48248106060606  0.190848214285714 2.35653409090909  C 0.0636160714285714 2.23058712121212  0 2.08143939393939  0 1.90909090909091  L 0 0.636363636363636  C 0 0.464015151515151  0.0636160714285714 0.314867424242422  0.190848214285714 0.188920454545455  C 0.318080357142857 0.0629734848484835  0.46875 0  0.642857142857143 0  L 12.2142857142857 0  C 12.3883928571429 0  12.5390625 0.0629734848484835  12.6662946428571 0.188920454545455  Z " fill-rule="nonzero" fill="#ffffff" stroke="none" transform="matrix(1 0 0 1 10 12 )" />
  </g>
</svg>